<svg width="24" height="24" viewBox="0 0 24 24" fill="none" xmlns="http://www.w3.org/2000/svg">
<path d="M7 5.99976C6.44803 6.00007 6.00031 5.55287 6 5.0009C6 5.00052 6 5.00014 6 4.99976V2.99976C6 2.44748 6.44772 1.99976 7 1.99976C7.55228 1.99976 8 2.44748 8 2.99976V4.99976C8.00031 5.55173 7.55311 5.99945 7.00114 5.99976C7.00076 5.99976 7.00038 5.99976 7 5.99976ZM17 5.99976C16.448 6.00007 16.0003 5.55287 16 5.0009C16 5.00052 16 5.00014 16 4.99976V2.99976C16 2.44748 16.4477 1.99976 17 1.99976C17.5523 1.99976 18 2.44748 18 2.99976V4.99976C18.0003 5.55173 17.5531 5.99945 17.0011 5.99976C17.0008 5.99976 17.0004 5.99976 17 5.99976Z" fill="#51367B"/>
<path d="M19 4.00024H18V4.99976C18 5.55204 17.5523 5.99976 17 5.99976C16.4477 5.99976 16 5.55204 16 4.99976V4.00024H8V4.99976C8 5.55204 7.55228 5.99976 7 5.99976C6.44772 5.99976 6 5.55204 6 4.99976V4.00024H5C3.34315 4.00024 2 5.34339 2 7.00024V9.00024H22V7.00024C22 5.34339 20.6569 4.00024 19 4.00024Z" fill="#FDA883"/>
<path d="M7 14C7.55228 14 8 13.5523 8 13C8 12.4477 7.55228 12 7 12C6.44772 12 6 12.4477 6 13C6 13.5523 6.44772 14 7 14Z" fill="#FDA883"/>
<path d="M7 18C7.55228 18 8 17.5523 8 17C8 16.4477 7.55228 16 7 16C6.44772 16 6 16.4477 6 17C6 17.5523 6.44772 18 7 18Z" fill="#FDA883"/>
<path d="M12 14C12.5523 14 13 13.5523 13 13C13 12.4477 12.5523 12 12 12C11.4477 12 11 12.4477 11 13C11 13.5523 11.4477 14 12 14Z" fill="#FDA883"/>
<path d="M12 18C12.5523 18 13 17.5523 13 17C13 16.4477 12.5523 16 12 16C11.4477 16 11 16.4477 11 17C11 17.5523 11.4477 18 12 18Z" fill="#FDA883"/>
<path d="M17 14C17.5523 14 18 13.5523 18 13C18 12.4477 17.5523 12 17 12C16.4477 12 16 12.4477 16 13C16 13.5523 16.4477 14 17 14Z" fill="#FDA883"/>
<path d="M17 18C17.5523 18 18 17.5523 18 17C18 16.4477 17.5523 16 17 16C16.4477 16 16 16.4477 16 17C16 17.5523 16.4477 18 17 18Z" fill="#FDA883"/>
<path d="M2 9.00024V19.0002C2 20.6571 3.34315 22.0002 5 22.0002H19C20.6569 22.0002 22 20.6571 22 19.0002V9.00024H2ZM7 18.0002C6.44772 18.0002 6 17.5525 6 17.0002C6 16.448 6.44772 16.0002 7 16.0002C7.55228 16.0002 8 16.448 8 17.0002C8 17.5525 7.55228 18.0002 7 18.0002ZM7 14.0002C6.44772 14.0002 6 13.5525 6 13.0002C6 12.448 6.44772 12.0002 7 12.0002C7.55228 12.0002 8 12.448 8 13.0002C8 13.5525 7.55228 14.0002 7 14.0002ZM12 18.0002C11.4477 18.0002 11 17.5525 11 17.0002C11 16.448 11.4477 16.0002 12 16.0002C12.5523 16.0002 13 16.448 13 17.0002C13 17.5525 12.5523 18.0002 12 18.0002ZM12 14.0002C11.4477 14.0002 11 13.5525 11 13.0002C11 12.448 11.4477 12.0002 12 12.0002C12.5523 12.0002 13 12.448 13 13.0002C13 13.5525 12.5523 14.0002 12 14.0002ZM17 18.0002C16.4477 18.0002 16 17.5525 16 17.0002C16 16.448 16.4477 16.0002 17 16.0002C17.5523 16.0002 18 16.448 18 17.0002C18 17.5525 17.5523 18.0002 17 18.0002ZM17 14.0002C16.4477 14.0002 16 13.5525 16 13.0002C16 12.448 16.4477 12.0002 17 12.0002C17.5523 12.0002 18 12.448 18 13.0002C18 13.5525 17.5523 14.0002 17 14.0002Z" fill="#51367B"/>
</svg>
