<svg width="28" height="28" viewBox="0 0 28 28" fill="none" xmlns="http://www.w3.org/2000/svg">
<path d="M14.0001 13.5334C15.2887 13.5334 16.3334 12.4887 16.3334 11.2C16.3334 9.91137 15.2887 8.8667 14.0001 8.8667C12.7114 8.8667 11.6667 9.91137 11.6667 11.2C11.6667 12.4887 12.7114 13.5334 14.0001 13.5334Z" fill="#FF8F66"/>
<path d="M14 4.19995C10.1404 4.19995 7 7.2035 7 10.894C7 12.6515 7.80106 14.9887 9.38087 17.8408C10.6496 20.1308 12.1174 22.2016 12.8809 23.2319C13.0099 23.408 13.1786 23.5511 13.3732 23.6498C13.5679 23.7485 13.7831 23.7999 14.0013 23.7999C14.2196 23.7999 14.4347 23.7485 14.6294 23.6498C14.8241 23.5511 14.9927 23.408 15.1218 23.2319C15.8839 22.2016 17.353 20.1308 18.6218 17.8408C20.1989 14.9895 21 12.6523 21 10.894C21 7.2035 17.8596 4.19995 14 4.19995ZM14 14.0003C13.4462 14.0003 12.9049 13.8361 12.4444 13.5284C11.9839 13.2207 11.6251 12.7834 11.4131 12.2718C11.2012 11.7601 11.1458 11.1971 11.2538 10.6539C11.3618 10.1108 11.6285 9.61184 12.0201 9.22024C12.4117 8.82864 12.9106 8.56195 13.4537 8.45391C13.9969 8.34587 14.5599 8.40132 15.0715 8.61325C15.5831 8.82519 16.0204 9.18408 16.3281 9.64456C16.6358 10.105 16.8 10.6464 16.8 11.2002C16.7992 11.9426 16.5039 12.6543 15.979 13.1793C15.4541 13.7042 14.7424 13.9995 14 14.0003Z" fill="#3E206D"/>
</svg>
